<?xml version="1.0" encoding="UTF-8"?>
<svg width="70px" height="70px" viewBox="0 0 70 70" version="1.1" xmlns="http://www.w3.org/2000/svg" xmlns:xlink="http://www.w3.org/1999/xlink">
    <!-- Generator: Sketch 52.3 (67297) - http://www.bohemiancoding.com/sketch -->
    <title>Combined Shape</title>
    <desc>Created with Sketch.</desc>
    <g id="Page-1" stroke="none" stroke-width="1" fill="none" fill-rule="evenodd">
        <path d="M35,70 C15.6700338,70 0,54.3299662 0,35 C0,15.6700338 15.6700338,0 35,0 C54.3299662,0 70,15.6700338 70,35 C70,54.3299662 54.3299662,70 35,70 Z M26,23.5276682 L26,47.4735944 C26,50.3858885 29.3727628,52.0388121 31.7148922,50.2737854 L47.5987002,38.300226 C49.4670999,36.8917824 49.4670999,34.1094802 47.5987002,32.699844 L31.7148922,20.7274772 C31.0495008,20.2265913 30.3021409,20 29.5728623,20 C27.7309819,20 26,21.4394508 26,23.5276682 Z" id="Combined-Shape" fill="#FFFFFF"></path>
    </g>
</svg>