<svg id="Layer_1" data-name="Layer 1" xmlns="http://www.w3.org/2000/svg" viewBox="0 0 546.6 546.6">
  <title>Artboard 1</title>
  <g>
    <rect width="546.6" height="546.6" style="fill: #e60012"/>
    <path d="M296.23,324.3H334A63,63,0,0,0,397,261.35V141.75A63,63,0,0,0,334,78.8H296a1.6,1.6,0,0,0-1.6,1.6V322.5A1.8,1.8,0,0,0,296.23,324.3ZM343,189a24.82,24.82,0,1,1-24.82,24.82A24.82,24.82,0,0,1,343,189ZM268.06,78.8H214.41a63,63,0,0,0-62.95,62.95v119.6a63,63,0,0,0,62.95,62.95h53.66a1.8,1.8,0,0,0,1.8-1.8V80.6A1.8,1.8,0,0,0,268.06,78.8Zm-18,225.71H214.41a43.15,43.15,0,0,1-43.15-43.16V141.75a43.15,43.15,0,0,1,43.15-43.16h35.67Zm-60.4-152.06a23.08,23.08,0,1,0,23.08-23.08A23.08,23.08,0,0,0,189.68,152.45ZM99.54,371.87l15.23,20.5h6.05V361.71h-6.22v20.14L99.52,361.71H93.32v30.66h6.21Zm149.64-10.15h-26v6.51H233v24.15h6.6V368.22h9.58Zm-1.89,104.18h12.87V408H247.29Zm-67.2-94,15.22,20.5h6.05V361.71h-6.22v20.14l-15.08-20.14h-6.19v30.66h6.22ZM209.16,450l-12.25-42H186.64l-12.19,41.81L163.33,408H150.74l16.37,57.84H181l10.79-38.11,10.71,38.11h14L232.92,408H220.33Zm-91.83-19.26c-8.36-1.37-13.75-2.92-13.75-6.81,0-4.5,6-6.23,14.07-6.23,7.5,0,15,2.86,17.7,4l4.11-10a64.84,64.84,0,0,0-22.4-4.45c-12.5,0-25.78,6.09-25.78,17.39,0,9.16,6.46,13.84,23,16.69,11.69,2,18.13,3.12,17.95,8.15-.1,2.77-2.24,7.41-15.42,7.41a40.9,40.9,0,0,1-20.66-5.4l-5.47,9.88A56.71,56.71,0,0,0,116,467.48c18.4,0,28.13-6.38,28.13-18.44C144.15,442.05,141.79,434.77,117.33,430.75Zm33.42-69h-6.82v30.66h6.82Zm197.6,30.66V361.71h-6.22v20.14l-15.08-20.14h-6.19v30.66h6.21v-20.5l15.23,20.5Zm-52.9-5.68H277.84V379.5h16.29V374H277.84v-6.62h17.62v-5.63H271.62v30.65h23.84Zm163.15,72.24h2.65v7h1.67v-7h2.59v-1.65h-6.91Zm-19.72-98.25A16.36,16.36,0,1,0,455.22,377,16.36,16.36,0,0,0,438.89,360.68Zm0,25.9a9.54,9.54,0,1,1,9.52-9.54A9.54,9.54,0,0,1,438.89,386.58Zm35.39,70.7-2.17,6.3-2.17-6.3h-2.39v8.61h1.54v-6.61l2.25,6.53,0,.08h1.48l0-.08,2.25-6.53v6.61h1.54v-8.61ZM441,430.84H414V408H402v57.84h12V442.82h27v23.07h12V408H441ZM274.27,420.32h18.49v45.57H305.2V420.32h18.07V408h-49Zm89.21-1.3a18.55,18.55,0,0,1,15.88,9l9.41-8.18a30.87,30.87,0,1,0,0,34.43l-9.41-8.18a18.55,18.55,0,0,1-15.88,9,18,18,0,1,1,0-36ZM387,361.71H374.3v30.66H387a15.33,15.33,0,1,0,0-30.66Zm.31,24.21h-6.69V368.15h6.69a8.89,8.89,0,0,1,0,17.77Z" style="fill: #fff"/>
  </g>
</svg>
